<svg width="200" height="200" viewBox="0 0 200 200" xmlns="http://www.w3.org/2000/svg">
  <!-- Background circle -->
  <circle cx="100" cy="100" r="90" fill="#4F46E5" />
  
  <!-- Prompt symbol - speech bubble -->
  <path d="M60 40 L140 40 Q150 40 150 50 L150 100 Q150 110 140 110 L100 110 L80 130 L80 110 L60 110 Q50 110 50 100 L50 50 Q50 40 60 40 Z" fill="white" />
  
  <!-- AI brain symbol -->
  <circle cx="100" cy="75" r="15" fill="#4F46E5" />
  <circle cx="85" cy="65" r="8" fill="#4F46E5" />
  <circle cx="115" cy="65" r="8" fill="#4F46E5" />
  <circle cx="80" cy="90" r="6" fill="#4F46E5" />
  <circle cx="120" cy="90" r="6" fill="#4F46E5" />
  
  <!-- Connection lines -->
  <line x1="85" y1="65" x2="100" y2="75" stroke="white" stroke-width="2" />
  <line x1="115" y1="65" x2="100" y2="75" stroke="white" stroke-width="2" />
  <line x1="80" y1="90" x2="100" y2="75" stroke="white" stroke-width="2" />
  <line x1="120" y1="90" x2="100" y2="75" stroke="white" stroke-width="2" />
  
  <!-- Text -->
  <text x="100" y="155" font-family="Arial, sans-serif" font-size="24" font-weight="bold" fill="white" text-anchor="middle">PromptPilot</text>
</svg>